v -0.0850 0.0400 -0.1000
v 0.0850 0.0400 -0.1000
v 0.0850 0.7600 -0.1000
v -0.0850 0.7600 -0.1000
v -0.0850 0.0400 0.1000
v 0.0850 0.0400 0.1000
v 0.0850 0.7600 0.1000
v -0.0850 0.7600 0.1000
f 1 2 3 4
f 5 8 7 6
f 1 5 6 2
f 4 3 7 8
f 1 4 8 5
f 2 6 7 3
v -0.2150 0.0400 -0.1000
v -0.0450 0.0400 -0.1000
v -0.0450 0.7600 -0.1000
v -0.2150 0.7600 -0.1000
v -0.2150 0.0400 0.1000
v -0.0450 0.0400 0.1000
v -0.0450 0.7600 0.1000
v -0.2150 0.7600 0.1000
f 9 10 11 12
f 13 16 15 14
f 9 13 14 10
f 12 11 15 16
f 9 12 16 13
f 10 14 15 11
v 0.0450 0.0400 -0.1000
v 0.2150 0.0400 -0.1000
v 0.2150 0.7600 -0.1000
v 0.0450 0.7600 -0.1000
v 0.0450 0.0400 0.1000
v 0.2150 0.0400 0.1000
v 0.2150 0.7600 0.1000
v 0.0450 0.7600 0.1000
f 17 18 19 20
f 21 24 23 22
f 17 21 22 18
f 20 19 23 24
f 17 20 24 21
f 18 22 23 19
v -0.2100 0.0000 -0.1100
v 0.2100 0.0000 -0.1100
v 0.2100 0.1200 -0.1100
v -0.2100 0.1200 -0.1100
v -0.2100 0.0000 0.1900
v 0.2100 0.0000 0.1900
v 0.2100 0.1200 0.1900
v -0.2100 0.1200 0.1900
f 25 26 27 28
f 29 32 31 30
f 25 29 30 26
f 28 27 31 32
f 25 28 32 29
f 26 30 31 27
v -0.2700 0.6700 -0.1700
v 0.2700 0.6700 -0.1700
v 0.2700 1.0100 -0.1700
v -0.2700 1.0100 -0.1700
v -0.2700 0.6700 0.1700
v 0.2700 0.6700 0.1700
v 0.2700 1.0100 0.1700
v -0.2700 1.0100 0.1700
f 33 34 35 36
f 37 40 39 38
f 33 37 38 34
f 36 35 39 40
f 33 36 40 37
f 34 38 39 35
v -0.2300 0.8300 -0.1300
v 0.2300 0.8300 -0.1300
v 0.2300 1.4500 -0.1300
v -0.2300 1.4500 -0.1300
v -0.2300 0.8300 0.1300
v 0.2300 0.8300 0.1300
v 0.2300 1.4500 0.1300
v -0.2300 1.4500 0.1300
f 41 42 43 44
f 45 48 47 46
f 41 45 46 42
f 44 43 47 48
f 41 44 48 45
f 42 46 47 43
v -0.2600 1.2600 -0.1500
v 0.2600 1.2600 -0.1500
v 0.2600 1.3800 -0.1500
v -0.2600 1.3800 -0.1500
v -0.2600 1.2600 0.1500
v 0.2600 1.2600 0.1500
v 0.2600 1.3800 0.1500
v -0.2600 1.3800 0.1500
f 49 50 51 52
f 53 56 55 54
f 49 53 54 50
f 52 51 55 56
f 49 52 56 53
f 50 54 55 51
v -0.4400 1.2400 -0.1100
v -0.2400 1.2400 -0.1100
v -0.2400 1.4000 -0.1100
v -0.4400 1.4000 -0.1100
v -0.4400 1.2400 0.1100
v -0.2400 1.2400 0.1100
v -0.2400 1.4000 0.1100
v -0.4400 1.4000 0.1100
f 57 58 59 60
f 61 64 63 62
f 57 61 62 58
f 60 59 63 64
f 57 60 64 61
f 58 62 63 59
v 0.2400 1.2400 -0.1100
v 0.4400 1.2400 -0.1100
v 0.4400 1.4000 -0.1100
v 0.2400 1.4000 -0.1100
v 0.2400 1.2400 0.1100
v 0.4400 1.2400 0.1100
v 0.4400 1.4000 0.1100
v 0.2400 1.4000 0.1100
f 65 66 67 68
f 69 72 71 70
f 65 69 70 66
f 68 67 71 72
f 65 68 72 69
f 66 70 71 67
v -0.4300 0.7300 -0.0700
v -0.2900 0.7300 -0.0700
v -0.2900 1.3100 -0.0700
v -0.4300 1.3100 -0.0700
v -0.4300 0.7300 0.0700
v -0.2900 0.7300 0.0700
v -0.2900 1.3100 0.0700
v -0.4300 1.3100 0.0700
f 73 74 75 76
f 77 80 79 78
f 73 77 78 74
f 76 75 79 80
f 73 76 80 77
f 74 78 79 75
v 0.2900 0.7300 -0.0700
v 0.4300 0.7300 -0.0700
v 0.4300 1.3100 -0.0700
v 0.2900 1.3100 -0.0700
v 0.2900 0.7300 0.0700
v 0.4300 0.7300 0.0700
v 0.4300 1.3100 0.0700
v 0.2900 1.3100 0.0700
f 81 82 83 84
f 85 88 87 86
f 81 85 86 82
f 84 83 87 88
f 81 84 88 85
f 82 86 87 83
v -0.4300 0.6400 -0.0700
v -0.2900 0.6400 -0.0700
v -0.2900 0.7600 -0.0700
v -0.4300 0.7600 -0.0700
v -0.4300 0.6400 0.0700
v -0.2900 0.6400 0.0700
v -0.2900 0.7600 0.0700
v -0.4300 0.7600 0.0700
f 89 90 91 92
f 93 96 95 94
f 89 93 94 90
f 92 91 95 96
f 89 92 96 93
f 90 94 95 91
v 0.2900 0.6400 -0.0700
v 0.4300 0.6400 -0.0700
v 0.4300 0.7600 -0.0700
v 0.2900 0.7600 -0.0700
v 0.2900 0.6400 0.0700
v 0.4300 0.6400 0.0700
v 0.4300 0.7600 0.0700
v 0.2900 0.7600 0.0700
f 97 98 99 100
f 101 104 103 102
f 97 101 102 98
f 100 99 103 104
f 97 100 104 101
f 98 102 103 99
v -0.1350 1.5000 -0.1350
v 0.1350 1.5000 -0.1350
v 0.1350 1.7800 -0.1350
v -0.1350 1.7800 -0.1350
v -0.1350 1.5000 0.1350
v 0.1350 1.5000 0.1350
v 0.1350 1.7800 0.1350
v -0.1350 1.7800 0.1350
f 105 106 107 108
f 109 112 111 110
f 105 109 110 106
f 108 107 111 112
f 105 108 112 109
f 106 110 111 107
v -0.1600 1.7800 -0.1500
v 0.1600 1.7800 -0.1500
v 0.1600 1.8800 -0.1500
v -0.1600 1.8800 -0.1500
v -0.1600 1.7800 0.1500
v 0.1600 1.7800 0.1500
v 0.1600 1.8800 0.1500
v -0.1600 1.8800 0.1500
f 113 114 115 116
f 117 120 119 118
f 113 117 118 114
f 116 115 119 120
f 113 116 120 117
f 114 118 119 115
v -0.0500 1.8600 -0.0700
v 0.0500 1.8600 -0.0700
v 0.0500 2.0000 -0.0700
v -0.0500 2.0000 -0.0700
v -0.0500 1.8600 0.0300
v 0.0500 1.8600 0.0300
v 0.0500 2.0000 0.0300
v -0.0500 2.0000 0.0300
f 121 122 123 124
f 125 128 127 126
f 121 125 126 122
f 124 123 127 128
f 121 124 128 125
f 122 126 127 123
