v -0.0350 0.2450 -0.0125
v 0.0350 0.2450 -0.0125
v 0.0350 1.1950 -0.0125
v -0.0350 1.1950 -0.0125
v -0.0350 0.2450 0.0125
v 0.0350 0.2450 0.0125
v 0.0350 1.1950 0.0125
v -0.0350 1.1950 0.0125
f 1 2 3 4
f 5 8 7 6
f 1 5 6 2
f 4 3 7 8
f 1 4 8 5
f 2 6 7 3
v -0.0150 1.1800 -0.0100
v 0.0150 1.1800 -0.0100
v 0.0150 1.2600 -0.0100
v -0.0150 1.2600 -0.0100
v -0.0150 1.1800 0.0100
v 0.0150 1.1800 0.0100
v 0.0150 1.2600 0.0100
v -0.0150 1.2600 0.0100
f 9 10 11 12
f 13 16 15 14
f 9 13 14 10
f 12 11 15 16
f 9 12 16 13
f 10 14 15 11
v -0.1500 0.2100 -0.0350
v 0.1500 0.2100 -0.0350
v 0.1500 0.2700 -0.0350
v -0.1500 0.2700 -0.0350
v -0.1500 0.2100 0.0350
v 0.1500 0.2100 0.0350
v 0.1500 0.2700 0.0350
v -0.1500 0.2700 0.0350
f 17 18 19 20
f 21 24 23 22
f 17 21 22 18
f 20 19 23 24
f 17 20 24 21
f 18 22 23 19
v -0.0250 0.0200 -0.0250
v 0.0250 0.0200 -0.0250
v 0.0250 0.2200 -0.0250
v -0.0250 0.2200 -0.0250
v -0.0250 0.0200 0.0250
v 0.0250 0.0200 0.0250
v 0.0250 0.2200 0.0250
v -0.0250 0.2200 0.0250
f 25 26 27 28
f 29 32 31 30
f 25 29 30 26
f 28 27 31 32
f 25 28 32 29
f 26 30 31 27
v -0.0450 -0.0300 -0.0450
v 0.0450 -0.0300 -0.0450
v 0.0450 0.0500 -0.0450
v -0.0450 0.0500 -0.0450
v -0.0450 -0.0300 0.0450
v 0.0450 -0.0300 0.0450
v 0.0450 0.0500 0.0450
v -0.0450 0.0500 0.0450
f 33 34 35 36
f 37 40 39 38
f 33 37 38 34
f 36 35 39 40
f 33 36 40 37
f 34 38 39 35
